<svg width="1280" height="832" viewBox="0 0 1280 832" fill="none" xmlns="http://www.w3.org/2000/svg">
<rect width="1280" height="832" fill="#F5F5F5"/>
<rect width="1280" height="832" fill="white"/>
<path d="M73.5121 67.45L69.7121 66.8V64.1L79.0121 63H79.1621L80.4621 63.95L80.5121 75.1L80.1621 79.45C81.1954 78.5167 82.5954 77.65 84.3621 76.85C86.1621 76.05 88.0454 75.65 90.0121 75.65C92.1121 75.65 93.7454 76.05 94.9121 76.85C96.0788 77.6167 96.8954 78.8 97.3621 80.4C97.8288 82 98.0621 84.1333 98.0621 86.8V100.55L101.262 101V104H88.1121V101L91.0121 100.55V86.8C91.0121 85.0667 90.8954 83.7167 90.6621 82.75C90.4288 81.7833 89.9954 81.0667 89.3621 80.6C88.7621 80.1333 87.8621 79.9 86.6621 79.9C85.6288 79.9 84.5621 80.15 83.4621 80.65C82.3954 81.1167 81.4454 81.6833 80.6121 82.35V100.55L83.6621 101V104H70.7121V101L73.5121 100.6V67.45ZM110.608 71.65C109.408 71.65 108.458 71.3 107.758 70.6C107.058 69.9 106.708 69 106.708 67.9C106.708 66.6333 107.108 65.5833 107.908 64.75C108.708 63.9167 109.775 63.5 111.108 63.5C112.442 63.5 113.458 63.8667 114.158 64.6C114.858 65.3 115.208 66.1833 115.208 67.25C115.208 68.5833 114.808 69.65 114.008 70.45C113.208 71.25 112.092 71.65 110.658 71.65H110.608ZM107.958 80.95L104.408 80V76.65L113.558 75.55H113.658L115.058 76.55V100.6L118.408 101V104H104.458V101L107.958 100.55V80.95ZM121.992 101.05L125.292 100.65V80.95L122.092 80.05V76.6L129.842 75.55H129.992L131.242 76.55V77.65L131.092 81.7H131.242C131.476 81.0333 132.026 80.2167 132.892 79.25C133.759 78.25 134.842 77.3833 136.142 76.65C137.476 75.8833 138.909 75.5 140.442 75.5C141.176 75.5 141.809 75.6 142.342 75.8V83.3C141.342 82.6 140.126 82.25 138.692 82.25C136.259 82.25 134.142 82.9 132.342 84.2V100.6L138.142 101.05V104H121.992V101.05ZM158.127 104.55C153.727 104.55 150.444 103.267 148.277 100.7C146.144 98.1 145.077 94.5667 145.077 90.1C145.077 87.1 145.627 84.5 146.727 82.3C147.861 80.1 149.444 78.4167 151.477 77.25C153.511 76.0833 155.861 75.5 158.527 75.5C161.861 75.5 164.427 76.3833 166.227 78.15C168.027 79.8833 168.961 82.3667 169.027 85.6C169.027 87.8 168.894 89.4333 168.627 90.5H152.377C152.511 93.5333 153.227 95.9 154.527 97.6C155.827 99.2667 157.677 100.1 160.077 100.1C161.377 100.1 162.711 99.8833 164.077 99.45C165.477 99.0167 166.577 98.5 167.377 97.9L168.627 100.65C167.727 101.617 166.261 102.517 164.227 103.35C162.227 104.15 160.194 104.55 158.127 104.55ZM162.027 87.5C162.094 86.5667 162.127 85.85 162.127 85.35C162.127 80.9167 160.644 78.7 157.677 78.7C156.044 78.7 154.777 79.35 153.877 80.65C152.977 81.95 152.477 84.2333 152.377 87.5H162.027ZM178.768 70.6L173.368 69.95V66.85H188.968L194.918 88.35L196.318 94.2L197.518 88.35L203.418 66.85H218.868V69.95L213.418 70.6L217.418 100.45L221.468 101V104H205.518V101L209.918 100.5L207.718 78.6L206.768 69.45L204.918 77.15L197.668 102.45H192.368L184.968 78.45L182.418 69.45L181.668 78.6L179.768 100.5L184.818 101V104H170.918V101L175.118 100.5L178.768 70.6ZM236.448 104.55C232.048 104.55 228.764 103.267 226.598 100.7C224.464 98.1 223.398 94.5667 223.398 90.1C223.398 87.1 223.948 84.5 225.048 82.3C226.181 80.1 227.764 78.4167 229.798 77.25C231.831 76.0833 234.181 75.5 236.848 75.5C240.181 75.5 242.748 76.3833 244.548 78.15C246.348 79.8833 247.281 82.3667 247.348 85.6C247.348 87.8 247.214 89.4333 246.948 90.5H230.698C230.831 93.5333 231.548 95.9 232.848 97.6C234.148 99.2667 235.998 100.1 238.398 100.1C239.698 100.1 241.031 99.8833 242.398 99.45C243.798 99.0167 244.898 98.5 245.698 97.9L246.948 100.65C246.048 101.617 244.581 102.517 242.548 103.35C240.548 104.15 238.514 104.55 236.448 104.55ZM240.348 87.5C240.414 86.5667 240.448 85.85 240.448 85.35C240.448 80.9167 238.964 78.7 235.998 78.7C234.364 78.7 233.098 79.35 232.198 80.65C231.298 81.95 230.798 84.2333 230.698 87.5H240.348Z" fill="#3C3C3C"/>
<rect x="41" y="36" width="20" height="95" fill="#FF5722"/>
</svg>
